<svg xmlns="http://www.w3.org/2000/svg" width="111.352" height="143.924" viewBox="0 0 111.352 143.924">
  <g id="Слой_2" data-name="Слой 2" transform="translate(3.091 1)">
    <g id="Слой_1" data-name="Слой 1">
      <path id="Контур_14" data-name="Контур 14" d="M44.988,57.067,32.7,37.833s4.213,19.84,3.613,20.66C16.4,36.408,13.706,1.5,15.36,1.5c-1.828,0,1.568,61.388,1.445,60.554,0,0-6.822-11.605-5.622-19.762,0,0-8.13,22.291,2.674,30.448" transform="translate(-4.574 -1.5)" fill="none" stroke="#fff" stroke-miterlimit="10" stroke-width="2"/>
      <path id="Контур_15" data-name="Контур 15" d="M100.4,128.983c.256.356-17.81-12.111-17.81-12.111-10.266-.043-44.169,0-44.169,0s-16.67,11.755-17.1,12.111l2.85-19.235L39.13,95.5H83.3l13.536,14.248Z" transform="translate(-8.333 -28.534)" fill="#fff"/>
      <path id="Контур_16" data-name="Контур 16" d="M125.1,128.983c.256.356-17.81-12.111-17.81-12.111-.356-.356.712-21.372.712-21.372l16.029,14.6Z" transform="translate(-33.037 -28.534)" fill="#fff"/>
      <path id="Контур_17" data-name="Контур 17" d="M38.418,116.872s-16.67,11.755-17.1,12.111l.356-18.879L39.13,95.5Z" transform="translate(-8.333 -28.534)" fill="#fff"/>
      <path id="Контур_36" data-name="Контур 36" d="M4.154,0H33.228a4.154,4.154,0,0,1,4.154,4.154v7.2a4.154,4.154,0,0,1-4.154,4.154H4.154A4.154,4.154,0,0,1,0,11.355v-7.2A4.154,4.154,0,0,1,4.154,0Z" transform="translate(33.562 69.941)" stroke="#fff" stroke-width="1"/>
      <text id="MU" transform="translate(42.497 80.956)" fill="#fff" font-size="13" font-family="SegoeUI-Bold, Segoe UI" font-weight="700" letter-spacing="-0.25em"><tspan x="0" y="0">MU</tspan></text>
      <path id="Контур_18" data-name="Контур 18" d="M13.9,137.1l-1.126,5.92-1.418-6.355-3.947,6.682,5.97-18.622L3.09,133.856,14.125,111.13" transform="translate(-3.09 -33.029)" fill="none" stroke="#fff" stroke-miterlimit="10" stroke-width="2"/>
      <path id="Контур_19" data-name="Контур 19" d="M135.884,110.67l8,17.342,2.575,5.583-5.247-4.843-2.759-2.547-2.082-1.922,5.621,18.708-3.818-6.732-1.5,6.362-1.054-5.977" transform="translate(-41.205 -32.897)" fill="none" stroke="#fff" stroke-miterlimit="10" stroke-width="2"/>
      <path id="Контур_20" data-name="Контур 20" d="M0,.03H17.548A4.372,4.372,0,0,1,21.92,4.372H4.372A4.372,4.372,0,0,1,0,0H0Z" transform="translate(12.977 111.261) rotate(-34.8)" fill="#fff"/>
      <path id="Контур_21" data-name="Контур 21" d="M0,0H23.5A4.372,4.372,0,0,1,27.87,4.372H4.382A4.372,4.372,0,0,1,.01,0H0Z" transform="translate(12.266 122.669) rotate(-34.8)" fill="#fff"/>
      <path id="Контур_22" data-name="Контур 22" d="M0,0H8.375a4.372,4.372,0,0,1,4.372,4.372H4.382A4.372,4.372,0,0,1,1.284,3.1,4.372,4.372,0,0,1,0,0Z" transform="translate(28.793 122.015) rotate(-34.8)" fill="#fff"/>
      <path id="Контур_26" data-name="Контур 26" d="M82.907,193.734l10.008-10.323a.234.234,0,0,0-.315-.347q-21.331,16.186-42.646-.419a.237.237,0,0,0-.323.347l9.678,10.621a.185.185,0,0,0,.153.073c1.565.073,21.686.121,23.251.121a.218.218,0,0,0,.194-.073Z" transform="translate(-18.455 -50.885)" fill="#fff"/>
      <path id="Контур_27" data-name="Контур 27" d="M71.578,179.71H79.2a1.355,1.355,0,0,1,1.3.992l2.887,10.436a1.355,1.355,0,0,1-1.306,1.71h-13.4a1.355,1.355,0,0,1-1.306-1.71L70.288,180.7A1.355,1.355,0,0,1,71.578,179.71Z" transform="translate(-21.893 -50.329)" fill="#fff"/>
      <path id="Контур_28" data-name="Контур 28" d="M74.525,162.352,71.344,153.1a2.386,2.386,0,0,0-.8-1.113l-2.919-2.259a.406.406,0,0,1,.39-.7,21.512,21.512,0,0,0,13.8,0,.406.406,0,0,1,.39.7l-3.181,2.457c-.247.191-.286.254-.318.326l-3.38,9.822a.406.406,0,0,1-.8.024Z" transform="translate(-21.607 -42.344)" fill="#fff"/>
      <path id="Контур_30" data-name="Контур 30" d="M8.249,57.067,20.377,37.833s-4.159,19.84-3.567,20.66C36.471,36.408,39.132,1.5,37.5,1.5c1.8,0-1.548,61.388-1.427,60.554,0,0,6.735-11.605,5.55-19.762,0,0,8.026,22.291-2.64,30.448" transform="translate(57.808 -1.5)" fill="none" stroke="#fff" stroke-miterlimit="10" stroke-width="2"/>
      <path id="Контур_31" data-name="Контур 31" d="M0,4.136l16.837.494A3.955,3.955,0,0,0,20.911.5h0L4.074,0A3.956,3.956,0,0,0,0,4.165H0Z" transform="matrix(-0.821, -0.571, 0.571, -0.821, 90.294, 114.682)" fill="#fff"/>
      <path id="Контур_32" data-name="Контур 32" d="M0,4.165l22.546.661A3.956,3.956,0,0,0,26.618.663h0L4.081,0A3.956,3.956,0,0,0,.01,4.165H0Z" transform="matrix(-0.821, -0.571, 0.571, -0.821, 90.96, 126.089)" fill="#fff"/>
      <path id="Контур_33" data-name="Контур 33" d="M0,4.165,8.037,4.4A3.956,3.956,0,0,0,12.109.238h0L4.083,0A3.915,3.915,0,0,0,1.147,1.167,4.1,4.1,0,0,0,0,4.165Z" transform="matrix(-0.821, -0.571, 0.571, -0.821, 75.428, 125.436)" fill="#fff"/>
    </g>
  </g>
</svg>
