<svg xmlns="http://www.w3.org/2000/svg" width="52.195" height="65.336" viewBox="0 0 52.195 65.336">
  <g id="Слой_2" data-name="Слой 2" transform="translate(3.091 1)">
    <g id="Слой_1" data-name="Слой 1">
      <path id="Контур_14" data-name="Контур 14" d="M24.787,26.513l-5.53-8.658s1.9,8.931,1.626,9.3C11.919,17.213,10.705,1.5,11.45,1.5c-.823,0,.706,27.633.651,27.258,0,0-3.071-5.224-2.531-8.9,0,0-3.659,10.034,1.2,13.706" transform="translate(-6.595 -1.5)" fill="rgba(255,255,255,0)" stroke="#000" stroke-miterlimit="10" stroke-width="2"/>
      <path id="Контур_15" data-name="Контур 15" d="M55.632,110.572c.111.16-7.728-5.452-7.728-5.452-4.454-.019-19.165,0-19.165,0s-7.233,5.291-7.419,5.452l1.236-8.658L29.048,95.5H48.213l5.873,6.414Z" transform="translate(-15.474 -65.356)"/>
      <path id="Контур_16" data-name="Контур 16" d="M115.268,110.572c.115.16-8.017-5.452-8.017-5.452-.16-.16.321-9.62.321-9.62l7.215,6.574Z" transform="translate(-75.109 -65.356)"/>
      <path id="Контур_17" data-name="Контур 17" d="M29.016,105.12s-7.5,5.291-7.7,5.452l.16-8.5L29.337,95.5Z" transform="translate(-15.474 -65.356)"/>
      <path id="Контур_36" data-name="Контур 36" d="M1.87,0H14.957a1.87,1.87,0,0,1,1.87,1.87V5.111a1.87,1.87,0,0,1-1.87,1.87H1.87A1.87,1.87,0,0,1,0,5.111V1.87A1.87,1.87,0,0,1,1.87,0Z" transform="translate(14.473 31.483)" fill="#fff" stroke="#000" stroke-width="1"/>
      <text id="MU" transform="translate(18.816 35.976)" font-size="6" font-family="SegoeUI-Bold, Segoe UI" font-weight="700" letter-spacing="-0.25em"><tspan x="0" y="0">MU</tspan></text>
      <path id="Контур_18" data-name="Контур 18" d="M7.958,122.822l-.507,2.665-.638-2.86-1.777,3.008,2.687-8.383L3.09,121.36l4.967-10.23" transform="translate(-3.09 -75.974)" fill="none" stroke="#000" stroke-miterlimit="10" stroke-width="2"/>
      <path id="Контур_19" data-name="Контур 19" d="M135.739,110.67l3.6,7.806,1.159,2.513-2.362-2.18-1.242-1.146-.937-.865,2.53,8.421-1.719-3.03-.673,2.864-.475-2.69" transform="translate(-94.403 -75.661)" fill="rgba(33,32,32,0)" stroke="#030303" stroke-miterlimit="10" stroke-width="2"/>
      <path id="Контур_20" data-name="Контур 20" d="M0,.013H7.9A1.968,1.968,0,0,1,9.867,1.968h-7.9A1.968,1.968,0,0,1,0,0H0Z" transform="translate(5.645 50.083) rotate(-34.8)"/>
      <path id="Контур_21" data-name="Контур 21" d="M0,0H10.577a1.968,1.968,0,0,1,1.968,1.968H1.973A1.968,1.968,0,0,1,0,0H0Z" transform="translate(5.324 55.218) rotate(-34.8)"/>
      <path id="Контур_22" data-name="Контур 22" d="M0,0H3.77A1.968,1.968,0,0,1,5.738,1.968H1.973A1.968,1.968,0,0,1,.578,1.393,1.968,1.968,0,0,1,0,0Z" transform="translate(12.56 54.924) rotate(-34.8)"/>
      <path id="Контур_26" data-name="Контур 26" d="M64.569,187.6l4.505-4.647a.105.105,0,0,0-.142-.156q-9.6,7.286-19.2-.189a.107.107,0,0,0-.145.156l4.356,4.781a.084.084,0,0,0,.069.033c.7.033,9.762.054,10.466.054a.1.1,0,0,0,.087-.033Z" transform="translate(-36.202 -123.3)"/>
      <path id="Контур_27" data-name="Контур 27" d="M69.238,179.71h3.431a.61.61,0,0,1,.584.447l1.3,4.7a.61.61,0,0,1-.588.77H67.931a.61.61,0,0,1-.588-.77l1.314-4.7A.61.61,0,0,1,69.238,179.71Z" transform="translate(-47.526 -121.471)"/>
      <path id="Контур_28" data-name="Контур 28" d="M70.649,155.01l-1.432-4.167a1.074,1.074,0,0,0-.358-.5l-1.314-1.017a.183.183,0,0,1,.175-.315,9.684,9.684,0,0,0,6.211,0,.183.183,0,0,1,.175.315l-1.432,1.106c-.111.086-.129.115-.143.147L71.01,155a.183.183,0,0,1-.362.011Z" transform="translate(-47.48 -100.99)"/>
      <path id="Контур_30" data-name="Контур 30" d="M8.249,26.513l5.459-8.658s-1.872,8.931-1.606,9.3C20.953,17.213,22.151,1.5,21.416,1.5c.812,0-.7,27.633-.642,27.258,0,0,3.031-5.224,2.5-8.9,0,0,3.613,10.034-1.188,13.706" transform="translate(20.203 -1.5)" fill="rgba(36,27,27,0)" stroke="#000" stroke-miterlimit="10" stroke-width="2"/>
      <path id="Контур_31" data-name="Контур 31" d="M0,1.862l7.579.222A1.78,1.78,0,0,0,9.413.223h0L1.834,0A1.781,1.781,0,0,0,0,1.875H0Z" transform="matrix(-0.821, -0.571, 0.571, -0.821, 39.546, 51.623)" fill="#151b3d"/>
      <path id="Контур_32" data-name="Контур 32" d="M0,1.875l10.149.3A1.781,1.781,0,0,0,11.982.3h0L1.837,0A1.781,1.781,0,0,0,0,1.875H0Z" transform="matrix(-0.821, -0.571, 0.571, -0.821, 39.845, 56.758)" fill="#151b3d"/>
      <path id="Контур_33" data-name="Контур 33" d="M0,1.875l3.617.106A1.781,1.781,0,0,0,5.451.107h0L1.838,0A1.763,1.763,0,0,0,.516.525,1.843,1.843,0,0,0,0,1.875Z" transform="matrix(-0.821, -0.571, 0.571, -0.821, 33.047, 56.464)" fill="#151b3d"/>
    </g>
  </g>
</svg>
