<svg xmlns="http://www.w3.org/2000/svg" width="35" height="34.66" viewBox="0 0 35 34.66">
  <g id="paper" transform="translate(0 -2.493)">
    <path id="Контур_116" data-name="Контур 116" d="M34.712,6.74,30.58,2.8a.838.838,0,0,0-.623-.307H13.405a.878.878,0,0,0-.877.877V6.062l-5.833,1a.864.864,0,0,0-.7,1l.3,1.726c-1.9.638-3.843,1.3-5.722,1.971a.868.868,0,0,0-.519,1.1L3.788,23.25a.513.513,0,0,0,.965-.347L1.07,12.665c1.771-.634,3.6-1.254,5.4-1.857L8.227,21.078l2.027,11.828a.868.868,0,0,0,1,.7l5.49-.942,4.29-.735-6.453,2.319-5.088,1.83L5.539,25.089a.513.513,0,1,0-.965.347L8.582,36.584a.866.866,0,0,0,.811.568.848.848,0,0,0,.291-.052l5.241-1.884,11.9-4.278,2.274-.39h5.022A.879.879,0,0,0,35,29.67V7.318a.738.738,0,0,0-.288-.578Zm-1.358.121H30.725c-.123,0-.41,0-.483-.07a.289.289,0,0,1-.037-.177L30.2,3.853Zm.621,22.662H13.554V19.532a.513.513,0,0,0-1.025,0V29.67a.879.879,0,0,0,.877.879h9.626l-6.463,1.108-5.331.915-2-11.667L7.032,8.044l5.5-.942v10.05a.513.513,0,0,0,1.025,0V3.518H29.173l.007,3.1a1.221,1.221,0,0,0,.339.9,1.568,1.568,0,0,0,1.139.368h3.317Z" transform="translate(0)" fill="#101c5f"/>
    <path id="Контур_117" data-name="Контур 117" d="M234.43,111.962a.513.513,0,0,0,.513.513H249.6a.513.513,0,1,0,0-1.025H234.943A.513.513,0,0,0,234.43,111.962Z" transform="translate(-218.405 -101.508)" fill="#d3004a"/>
    <path id="Контур_118" data-name="Контур 118" d="M249.6,164.731H234.943a.513.513,0,0,0,0,1.025H249.6a.513.513,0,0,0,0-1.025Z" transform="translate(-218.405 -151.147)" fill="#d3004a"/>
    <path id="Контур_119" data-name="Контур 119" d="M249.6,218.013H234.943a.513.513,0,0,0,0,1.025H249.6a.513.513,0,0,0,0-1.025Z" transform="translate(-218.405 -200.787)" fill="#d3004a"/>
    <path id="Контур_120" data-name="Контур 120" d="M249.6,271.3H234.943a.513.513,0,1,0,0,1.025H249.6a.513.513,0,0,0,0-1.025Z" transform="translate(-218.405 -250.427)" fill="#d3004a"/>
    <path id="Контур_121" data-name="Контур 121" d="M249.6,324.578H234.943a.513.513,0,1,0,0,1.025H249.6a.513.513,0,1,0,0-1.025Z" transform="translate(-218.405 -300.067)" fill="#d3004a"/>
  </g>
</svg>
